<?xml version="1.0" standalone="no"?><!DOCTYPE svg PUBLIC "-//W3C//DTD SVG 1.1//EN" "http://www.w3.org/Graphics/SVG/1.1/DTD/svg11.dtd"><svg t="1585559216001" class="icon" viewBox="0 0 1024 1024" version="1.1" xmlns="http://www.w3.org/2000/svg" p-id="2125" xmlns:xlink="http://www.w3.org/1999/xlink" width="200" height="200"><defs><style type="text/css"></style></defs><path d="M512 870.4C267.946667 870.4 68.266667 709.973333 68.266667 512S267.946667 153.6 512 153.6s443.733333 160.426667 443.733333 358.4c0 54.613333-17.066667 109.226667-47.786666 160.426667l34.133333 51.2c15.36 23.893333 15.36 54.613333 0 78.506666-15.36 23.893333-40.96 35.84-68.266667 30.72l-117.76-22.186666C686.08 849.92 600.746667 870.4 512 870.4z m0-648.533333C305.493333 221.866667 136.533333 351.573333 136.533333 512s168.96 290.133333 375.466667 290.133333c80.213333 0 160.426667-20.48 221.866667-56.32l10.24-6.826666 141.653333 25.6s1.706667-1.706667 0-3.413334l-61.44-88.746666 13.653333-18.773334C870.4 607.573333 887.466667 559.786667 887.466667 512c0-160.426667-168.96-290.133333-375.466667-290.133333z" fill="#ffffff" p-id="2126"></path><path d="M358.4 529.066667c-29.013333 0-51.2-23.893333-51.2-52.906667s22.186667-52.906667 51.2-52.906667 51.2 23.893333 51.2 52.906667-22.186667 52.906667-51.2 52.906667z m0-68.266667c-10.24 0-17.066667 6.826667-17.066667 15.36s6.826667 15.36 17.066667 15.36 17.066667-6.826667 17.066667-15.36-6.826667-15.36-17.066667-15.36zM648.533333 529.066667c-29.013333 0-51.2-23.893333-51.2-52.906667s22.186667-52.906667 51.2-52.906667 51.2 23.893333 51.2 52.906667-22.186667 52.906667-51.2 52.906667z m0-68.266667c-10.24 0-17.066667 6.826667-17.066666 15.36s6.826667 15.36 17.066666 15.36 17.066667-6.826667 17.066667-15.36-6.826667-15.36-17.066667-15.36z" fill="#ffffff" p-id="2127"></path></svg>