<?xml version="1.0" standalone="no"?><!DOCTYPE svg PUBLIC "-//W3C//DTD SVG 1.1//EN" "http://www.w3.org/Graphics/SVG/1.1/DTD/svg11.dtd"><svg t="1585534601190" class="icon" viewBox="0 0 1024 1024" version="1.1" xmlns="http://www.w3.org/2000/svg" p-id="1283" xmlns:xlink="http://www.w3.org/1999/xlink" width="200" height="200"><defs><style type="text/css"></style></defs><path d="M907.2 461.3c-2.4 0-4.7-0.8-6.6-2.5L512.8 116.1h-0.3L124.8 458.8c-4.1 3.7-10.5 3.3-14.1-0.9-3.7-4.1-3.3-10.5 0.9-14.1L500 100.5l0.3-0.2c7.3-5.5 17.4-5.5 24.7 0l0.6 0.5 388.2 343.1c4.1 3.7 4.5 10 0.9 14.1-2 2.2-4.8 3.3-7.5 3.3z" fill="#0094ff" p-id="1284"></path><path d="M723.8 905.1h-71.9c-21.1 0-38.3-17.2-38.3-38.3V725.1c0-23.1-18.8-41.9-41.9-41.9H449.5c-23.1 0-41.9 18.8-41.9 41.9v141.8c0 21.1-17.2 38.3-38.3 38.3h-77.1c-49.4 0-89.6-40.2-89.6-89.6V451.3c0-5.5 4.5-10 10-10s10 4.5 10 10v364.2c0 38.4 31.2 69.6 69.6 69.6h77.1c10.1 0 18.3-8.2 18.3-18.3V725.1c0-34.1 27.8-61.9 61.9-61.9h122.3c34.1 0 61.9 27.8 61.9 61.9v141.8c0 10.1 8.2 18.3 18.3 18.3h71.9c41.2 0 74.8-33.5 74.8-74.8V451.3c0-5.5 4.5-10 10-10s10 4.5 10 10v359.1c-0.2 52.2-42.7 94.7-94.9 94.7z" fill="#0094ff" p-id="1285"></path></svg>