<?xml version="1.0" standalone="no"?><!DOCTYPE svg PUBLIC "-//W3C//DTD SVG 1.1//EN" "http://www.w3.org/Graphics/SVG/1.1/DTD/svg11.dtd"><svg t="1585563741058" class="icon" viewBox="0 0 1024 1024" version="1.1" xmlns="http://www.w3.org/2000/svg" p-id="1179" xmlns:xlink="http://www.w3.org/1999/xlink" width="200" height="200"><defs><style type="text/css"></style></defs><path d="M443.7 700.2c-73.6 0-142.8-28.7-194.9-80.7-52.1-52.1-80.7-121.3-80.7-194.9s28.7-142.8 80.7-194.9c52.1-52.1 121.3-80.7 194.9-80.7s142.8 28.7 194.9 80.7c52.1 52.1 80.7 121.3 80.7 194.9s-28.7 142.8-80.7 194.9c-52 52-121.2 80.7-194.9 80.7z m0-531.2c-68.3 0-132.5 26.6-180.7 74.9-48.3 48.3-74.9 112.5-74.9 180.7s26.6 132.5 74.9 180.7c99.7 99.7 261.8 99.7 361.5 0 99.7-99.7 99.7-261.8 0-361.5C576.2 195.6 512 169 443.7 169zM819.4 810.2c-2.6 0-5.1-1-7.1-2.9L655.8 650.8c-3.9-3.9-3.9-10.2 0-14.1 3.9-3.9 10.2-3.9 14.1 0l156.5 156.5c3.9 3.9 3.9 10.2 0 14.1-1.9 2-4.5 2.9-7 2.9z" fill="#0094ff" p-id="1180"></path></svg>