<?xml version="1.0" standalone="no"?><!DOCTYPE svg PUBLIC "-//W3C//DTD SVG 1.1//EN" "http://www.w3.org/Graphics/SVG/1.1/DTD/svg11.dtd"><svg t="1585534597022" class="icon" viewBox="0 0 1024 1024" version="1.1" xmlns="http://www.w3.org/2000/svg" p-id="1154" xmlns:xlink="http://www.w3.org/1999/xlink" width="200" height="200"><defs><style type="text/css"></style></defs><path d="M520.7 581.8c-61.9 0-120.2-24.1-164-67.9-43.8-43.8-67.9-102-67.9-164s24.1-120.2 67.9-164c43.8-43.8 102-67.9 164-67.9s120.2 24.1 164 67.9c43.8 43.8 67.9 102 67.9 164s-24.1 120.2-67.9 164c-43.8 43.8-102 67.9-164 67.9z m0-443.8c-116.8 0-211.9 95.1-211.9 211.9s95.1 211.9 211.9 211.9c116.8 0 211.9-95.1 211.9-211.9S637.6 138 520.7 138zM890.6 951.6c-5.5 0-10-4.5-10-10 0-128.2-69.1-247.7-180.2-311.9-4.8-2.8-6.4-8.9-3.7-13.7 2.8-4.8 8.9-6.4 13.7-3.7 56.8 32.8 104.4 80 137.7 136.4 34.3 58.2 52.5 124.8 52.5 192.8 0 5.7-4.5 10.1-10 10.1z" fill="#231815" p-id="1155"></path><path d="M150.9 951.6c-5.5 0-10-4.5-10-10 0-51.3 10-101 29.9-147.9 19.1-45.2 46.5-85.9 81.4-120.7 34.9-34.9 75.5-62.3 120.7-81.4 46.8-19.8 96.6-29.9 147.9-29.9h24.7c5.5 0 10 4.5 10 10s-4.5 10-10 10h-24.7C322.4 581.7 161 743.1 161 941.5c-0.1 5.7-4.6 10.1-10.1 10.1z" fill="#231815" p-id="1156"></path></svg>